<svg xmlns="http://www.w3.org/2000/svg" viewBox="0 19.700000762939453 90.9000015258789 26.349998474121094" data-asc="0.918" width="90.9000015258789" height="26.349998474121094"><defs/><g fill="#000000"><g transform="translate(0, 0)"><path d="M12.20 20.70Q11.70 20.70 11.70 20.20Q11.70 19.70 12.20 19.70Q12.70 19.70 12.70 20.20Q12.70 20.70 12.20 20.70M14.50 21.05Q14.00 21.05 14.00 20.55Q14.00 20.05 14.50 20.05Q15.00 20.05 15.00 20.55Q15.00 21.05 14.50 21.05M16.50 21.70Q16 21.70 16 21.20Q16 20.70 16.50 20.70Q17 20.70 17 21.20Q17 21.70 16.50 21.70M18.45 22.85Q17.95 22.85 17.95 22.35Q17.95 21.85 18.45 21.85Q18.95 21.85 18.95 22.35Q18.95 22.85 18.45 22.85M20.05 24.25Q19.55 24.25 19.55 23.75Q19.55 23.25 20.05 23.25Q20.55 23.25 20.55 23.75Q20.55 24.25 20.05 24.25M21.20 25.90Q20.70 25.90 20.70 25.40Q20.70 24.90 21.20 24.90Q21.70 24.90 21.70 25.40Q21.70 25.90 21.20 25.90M9.85 21.05Q9.35 21.05 9.35 20.55Q9.35 20.05 9.85 20.05Q10.35 20.05 10.35 20.55Q10.35 21.05 9.85 21.05M7.85 21.70Q7.35 21.70 7.35 21.20Q7.35 20.70 7.85 20.70Q8.35 20.70 8.35 21.20Q8.35 21.70 7.85 21.70M5.90 22.85Q5.40 22.85 5.40 22.35Q5.40 21.85 5.90 21.85Q6.40 21.85 6.40 22.35Q6.40 22.85 5.90 22.85M4.30 24.25Q3.80 24.25 3.80 23.75Q3.80 23.25 4.30 23.25Q4.80 23.25 4.80 23.75Q4.80 24.25 4.30 24.25M1.85 27.70Q1.35 27.70 1.35 27.20Q1.35 26.70 1.85 26.70Q2.35 26.70 2.35 27.20Q2.35 27.70 1.85 27.70M1.10 29.55Q0.60 29.55 0.60 29.05Q0.60 28.55 1.10 28.55Q1.60 28.55 1.60 29.05Q1.60 29.55 1.10 29.55M0.50 33.40Q0 33.40 0 32.90Q0 32.40 0.50 32.40Q1 32.40 1 32.90Q1 33.40 0.50 33.40M2.90 25.95Q2.40 25.95 2.40 25.45Q2.40 24.95 2.90 24.95Q3.40 24.95 3.40 25.45Q3.40 25.95 2.90 25.95M0.70 31.40Q0.20 31.40 0.20 30.90Q0.20 30.40 0.70 30.40Q1.20 30.40 1.20 30.90Q1.20 31.40 0.70 31.40M12.20 45.05Q12.70 45.05 12.70 45.55Q12.70 46.05 12.20 46.05Q11.70 46.05 11.70 45.55Q11.70 45.05 12.20 45.05M14.50 44.70Q15.00 44.70 15.00 45.20Q15.00 45.70 14.50 45.70Q14.00 45.70 14.00 45.20Q14.00 44.70 14.50 44.70M16.50 44.05Q17 44.05 17 44.55Q17 45.05 16.50 45.05Q16 45.05 16 44.55Q16 44.05 16.50 44.05M18.45 42.90Q18.95 42.90 18.95 43.40Q18.95 43.90 18.45 43.90Q17.95 43.90 17.95 43.40Q17.95 42.90 18.45 42.90M20.05 41.50Q20.55 41.50 20.55 42Q20.55 42.50 20.05 42.50Q19.55 42.50 19.55 42Q19.55 41.50 20.05 41.50M21.45 39.80Q21.95 39.80 21.95 40.30Q21.95 40.80 21.45 40.80Q20.95 40.80 20.95 40.30Q20.95 39.80 21.45 39.80M9.85 44.70Q10.35 44.70 10.35 45.20Q10.35 45.70 9.85 45.70Q9.35 45.70 9.35 45.20Q9.35 44.70 9.85 44.70M7.85 44.05Q8.35 44.05 8.35 44.55Q8.35 45.05 7.85 45.05Q7.35 45.05 7.35 44.55Q7.35 44.05 7.85 44.05M5.90 42.90Q6.40 42.90 6.40 43.40Q6.40 43.90 5.90 43.90Q5.40 43.90 5.40 43.40Q5.40 42.90 5.90 42.90M4.30 41.50Q4.80 41.50 4.80 42Q4.80 42.50 4.30 42.50Q3.80 42.50 3.80 42Q3.80 41.50 4.30 41.50M1.85 38.05Q2.35 38.05 2.35 38.55Q2.35 39.05 1.85 39.05Q1.35 39.05 1.35 38.55Q1.35 38.05 1.85 38.05M1.10 36.20Q1.60 36.20 1.60 36.70Q1.60 37.20 1.10 37.20Q0.60 37.20 0.60 36.70Q0.60 36.20 1.10 36.20M2.90 39.80Q3.40 39.80 3.40 40.30Q3.40 40.80 2.90 40.80Q2.40 40.80 2.40 40.30Q2.40 39.80 2.90 39.80M0.70 34.35Q1.20 34.35 1.20 34.85Q1.20 35.35 0.70 35.35Q0.20 35.35 0.20 34.85Q0.20 34.35 0.70 34.35ZM39.05 20.70Q38.55 20.70 38.55 20.20Q38.55 19.70 39.05 19.70Q39.55 19.70 39.55 20.20Q39.55 20.70 39.05 20.70M41.35 21.05Q40.85 21.05 40.85 20.55Q40.85 20.05 41.35 20.05Q41.85 20.05 41.85 20.55Q41.85 21.05 41.35 21.05M43.35 21.70Q42.85 21.70 42.85 21.20Q42.85 20.70 43.35 20.70Q43.85 20.70 43.85 21.20Q43.85 21.70 43.35 21.70M45.30 22.85Q44.80 22.85 44.80 22.35Q44.80 21.85 45.30 21.85Q45.80 21.85 45.80 22.35Q45.80 22.85 45.30 22.85M46.90 24.25Q46.40 24.25 46.40 23.75Q46.40 23.25 46.90 23.25Q47.40 23.25 47.40 23.75Q47.40 24.25 46.90 24.25M49.35 27.70Q48.85 27.70 48.85 27.20Q48.85 26.70 49.35 26.70Q49.85 26.70 49.85 27.20Q49.85 27.70 49.35 27.70M50.10 29.55Q49.60 29.55 49.60 29.05Q49.60 28.55 50.10 28.55Q50.60 28.55 50.60 29.05Q50.60 29.55 50.10 29.55M50.70 33.40Q50.20 33.40 50.20 32.90Q50.20 32.40 50.70 32.40Q51.20 32.40 51.20 32.90Q51.20 33.40 50.70 33.40M48.30 25.95Q47.80 25.95 47.80 25.45Q47.80 24.95 48.30 24.95Q48.80 24.95 48.80 25.45Q48.80 25.95 48.30 25.95M50.45 31.45Q49.95 31.45 49.95 30.95Q49.95 30.45 50.45 30.45Q50.95 30.45 50.95 30.95Q50.95 31.45 50.45 31.45M36.70 21.05Q36.20 21.05 36.20 20.55Q36.20 20.05 36.70 20.05Q37.20 20.05 37.20 20.55Q37.20 21.05 36.70 21.05M34.70 21.70Q34.20 21.70 34.20 21.20Q34.20 20.70 34.70 20.70Q35.20 20.70 35.20 21.20Q35.20 21.70 34.70 21.70M32.75 22.85Q32.25 22.85 32.25 22.35Q32.25 21.85 32.75 21.85Q33.25 21.85 33.25 22.35Q33.25 22.85 32.75 22.85M31.15 24.25Q30.65 24.25 30.65 23.75Q30.65 23.25 31.15 23.25Q31.65 23.25 31.65 23.75Q31.65 24.25 31.15 24.25M28.70 27.70Q28.20 27.70 28.20 27.20Q28.20 26.70 28.70 26.70Q29.20 26.70 29.20 27.20Q29.20 27.70 28.70 27.70M27.95 29.55Q27.45 29.55 27.45 29.05Q27.45 28.55 27.95 28.55Q28.45 28.55 28.45 29.05Q28.45 29.55 27.95 29.55M27.35 33.40Q26.85 33.40 26.85 32.90Q26.85 32.40 27.35 32.40Q27.85 32.40 27.85 32.90Q27.85 33.40 27.35 33.40M29.75 25.95Q29.25 25.95 29.25 25.45Q29.25 24.95 29.75 24.95Q30.25 24.95 30.25 25.45Q30.25 25.95 29.75 25.95M27.55 31.40Q27.05 31.40 27.05 30.90Q27.05 30.40 27.55 30.40Q28.05 30.40 28.05 30.90Q28.05 31.40 27.55 31.40M39.05 45.05Q39.55 45.05 39.55 45.55Q39.55 46.05 39.05 46.05Q38.55 46.05 38.55 45.55Q38.55 45.05 39.05 45.05M41.35 44.70Q41.85 44.70 41.85 45.20Q41.85 45.70 41.35 45.70Q40.85 45.70 40.85 45.20Q40.85 44.70 41.35 44.70M43.35 44.05Q43.85 44.05 43.85 44.55Q43.85 45.05 43.35 45.05Q42.85 45.05 42.85 44.55Q42.85 44.05 43.35 44.05M45.30 42.90Q45.80 42.90 45.80 43.40Q45.80 43.90 45.30 43.90Q44.80 43.90 44.80 43.40Q44.80 42.90 45.30 42.90M46.90 41.50Q47.40 41.50 47.40 42Q47.40 42.50 46.90 42.50Q46.40 42.50 46.40 42Q46.40 41.50 46.90 41.50M49.35 38.05Q49.85 38.05 49.85 38.55Q49.85 39.05 49.35 39.05Q48.85 39.05 48.85 38.55Q48.85 38.05 49.35 38.05M50.10 36.20Q50.60 36.20 50.60 36.70Q50.60 37.20 50.10 37.20Q49.60 37.20 49.60 36.70Q49.60 36.20 50.10 36.20M48.30 39.80Q48.80 39.80 48.80 40.30Q48.80 40.80 48.30 40.80Q47.80 40.80 47.80 40.30Q47.80 39.80 48.30 39.80M50.50 34.35Q51 34.35 51 34.85Q51 35.35 50.50 35.35Q50 35.35 50 34.85Q50 34.35 50.50 34.35M36.70 44.70Q37.20 44.70 37.20 45.20Q37.20 45.70 36.70 45.70Q36.20 45.70 36.20 45.20Q36.20 44.70 36.70 44.70M34.70 44.05Q35.20 44.05 35.20 44.55Q35.20 45.05 34.70 45.05Q34.20 45.05 34.20 44.55Q34.20 44.05 34.70 44.05M32.75 42.90Q33.25 42.90 33.25 43.40Q33.25 43.90 32.75 43.90Q32.25 43.90 32.25 43.40Q32.25 42.90 32.75 42.90M31.15 41.50Q31.65 41.50 31.65 42Q31.65 42.50 31.15 42.50Q30.65 42.50 30.65 42Q30.65 41.50 31.15 41.50M28.70 38.05Q29.20 38.05 29.20 38.55Q29.20 39.05 28.70 39.05Q28.20 39.05 28.20 38.55Q28.20 38.05 28.70 38.05M27.95 36.20Q28.45 36.20 28.45 36.70Q28.45 37.20 27.95 37.20Q27.45 37.20 27.45 36.70Q27.45 36.20 27.95 36.20M29.75 39.80Q30.25 39.80 30.25 40.30Q30.25 40.80 29.75 40.80Q29.25 40.80 29.25 40.30Q29.25 39.80 29.75 39.80M27.55 34.35Q28.05 34.35 28.05 34.85Q28.05 35.35 27.55 35.35Q27.05 35.35 27.05 34.85Q27.05 34.35 27.55 34.35ZM55.85 22.75Q55.35 22.75 55.35 22.25Q55.35 21.75 55.85 21.75Q56.35 21.75 56.35 22.25Q56.35 22.75 55.85 22.75M56.60 24.60Q56.10 24.60 56.10 24.10Q56.10 23.60 56.60 23.60Q57.10 23.60 57.10 24.10Q57.10 24.60 56.60 24.60M57.40 26.40Q56.90 26.40 56.90 25.90Q56.90 25.40 57.40 25.40Q57.90 25.40 57.90 25.90Q57.90 26.40 57.40 26.40M58.20 28.30Q57.70 28.30 57.70 27.80Q57.70 27.30 58.20 27.30Q58.70 27.30 58.70 27.80Q58.70 28.30 58.20 28.30M59.10 30.30Q58.60 30.30 58.60 29.80Q58.60 29.30 59.10 29.30Q59.60 29.30 59.60 29.80Q59.60 30.30 59.10 30.30M59.95 32.30Q59.45 32.30 59.45 31.80Q59.45 31.30 59.95 31.30Q60.45 31.30 60.45 31.80Q60.45 32.30 59.95 32.30M60.70 34.10Q60.20 34.10 60.20 33.60Q60.20 33.10 60.70 33.10Q61.20 33.10 61.20 33.60Q61.20 34.10 60.70 34.10M61.50 36Q61 36 61 35.50Q61 35 61.50 35Q62 35 62 35.50Q62 36 61.50 36M62.40 38Q61.90 38 61.90 37.50Q61.90 37 62.40 37Q62.90 37 62.90 37.50Q62.90 38 62.40 38M63.20 40.05Q62.70 40.05 62.70 39.55Q62.70 39.05 63.20 39.05Q63.70 39.05 63.70 39.55Q63.70 40.05 63.20 40.05M64 42Q63.50 42 63.50 41.50Q63.50 41 64 41Q64.50 41 64.50 41.50Q64.50 42 64 42M65.95 45.90Q65.45 45.90 65.45 45.40Q65.45 44.90 65.95 44.90Q66.45 44.90 66.45 45.40Q66.45 45.90 65.95 45.90M64.90 43.90Q64.40 43.90 64.40 43.40Q64.40 42.90 64.90 42.90Q65.40 42.90 65.40 43.40Q65.40 43.90 64.90 43.90M55.10 20.90Q54.60 20.90 54.60 20.40Q54.60 19.90 55.10 19.90Q55.60 19.90 55.60 20.40Q55.60 20.90 55.10 20.90M76 22.75Q75.50 22.75 75.50 22.25Q75.50 21.75 76 21.75Q76.50 21.75 76.50 22.25Q76.50 22.75 76 22.75M75.25 24.60Q74.75 24.60 74.75 24.10Q74.75 23.60 75.25 23.60Q75.75 23.60 75.75 24.10Q75.75 24.60 75.25 24.60M74.45 26.40Q73.95 26.40 73.95 25.90Q73.95 25.40 74.45 25.40Q74.95 25.40 74.95 25.90Q74.95 26.40 74.45 26.40M73.65 28.30Q73.15 28.30 73.15 27.80Q73.15 27.30 73.65 27.30Q74.15 27.30 74.15 27.80Q74.15 28.30 73.65 28.30M72.75 30.30Q72.25 30.30 72.25 29.80Q72.25 29.30 72.75 29.30Q73.25 29.30 73.25 29.80Q73.25 30.30 72.75 30.30M71.90 32.30Q71.40 32.30 71.40 31.80Q71.40 31.30 71.90 31.30Q72.40 31.30 72.40 31.80Q72.40 32.30 71.90 32.30M71.15 34.10Q70.65 34.10 70.65 33.60Q70.65 33.10 71.15 33.10Q71.65 33.10 71.65 33.60Q71.65 34.10 71.15 34.10M70.35 36Q69.85 36 69.85 35.50Q69.85 35 70.35 35Q70.85 35 70.85 35.50Q70.85 36 70.35 36M69.45 38Q68.95 38 68.95 37.50Q68.95 37 69.45 37Q69.95 37 69.95 37.50Q69.95 38 69.45 38M68.65 40.05Q68.15 40.05 68.15 39.55Q68.15 39.05 68.65 39.05Q69.15 39.05 69.15 39.55Q69.15 40.05 68.65 40.05M67.85 42Q67.35 42 67.35 41.50Q67.35 41 67.85 41Q68.35 41 68.35 41.50Q68.35 42 67.85 42M66.95 43.90Q66.45 43.90 66.45 43.40Q66.45 42.90 66.95 42.90Q67.45 42.90 67.45 43.40Q67.45 43.90 66.95 43.90M76.75 20.90Q76.25 20.90 76.25 20.40Q76.25 19.90 76.75 19.90Q77.25 19.90 77.25 20.40Q77.25 20.90 76.75 20.90M69.50 22.75Q69 22.75 69 22.25Q69 21.75 69.50 21.75Q70 21.75 70 22.25Q70 22.75 69.50 22.75M70.25 24.60Q69.75 24.60 69.75 24.10Q69.75 23.60 70.25 23.60Q70.75 23.60 70.75 24.10Q70.75 24.60 70.25 24.60M71.05 26.40Q70.55 26.40 70.55 25.90Q70.55 25.40 71.05 25.40Q71.55 25.40 71.55 25.90Q71.55 26.40 71.05 26.40M71.85 28.30Q71.35 28.30 71.35 27.80Q71.35 27.30 71.85 27.30Q72.35 27.30 72.35 27.80Q72.35 28.30 71.85 28.30M73.60 32.30Q73.10 32.30 73.10 31.80Q73.10 31.30 73.60 31.30Q74.10 31.30 74.10 31.80Q74.10 32.30 73.60 32.30M74.35 34.10Q73.85 34.10 73.85 33.60Q73.85 33.10 74.35 33.10Q74.85 33.10 74.85 33.60Q74.85 34.10 74.35 34.10M75.15 36Q74.65 36 74.65 35.50Q74.65 35 75.15 35Q75.65 35 75.65 35.50Q75.65 36 75.15 36M76.05 38Q75.55 38 75.55 37.50Q75.55 37 76.05 37Q76.55 37 76.55 37.50Q76.55 38 76.05 38M76.85 40.05Q76.35 40.05 76.35 39.55Q76.35 39.05 76.85 39.05Q77.35 39.05 77.35 39.55Q77.35 40.05 76.85 40.05M77.65 42Q77.15 42 77.15 41.50Q77.15 41 77.65 41Q78.15 41 78.15 41.50Q78.15 42 77.65 42M79.60 45.90Q79.10 45.90 79.10 45.40Q79.10 44.90 79.60 44.90Q80.10 44.90 80.10 45.40Q80.10 45.90 79.60 45.90M78.55 43.90Q78.05 43.90 78.05 43.40Q78.05 42.90 78.55 42.90Q79.05 42.90 79.05 43.40Q79.05 43.90 78.55 43.90M68.75 20.90Q68.25 20.90 68.25 20.40Q68.25 19.90 68.75 19.90Q69.25 19.90 69.25 20.40Q69.25 20.90 68.75 20.90M89.65 22.75Q89.15 22.75 89.15 22.25Q89.15 21.75 89.65 21.75Q90.15 21.75 90.15 22.25Q90.15 22.75 89.65 22.75M88.90 24.60Q88.40 24.60 88.40 24.10Q88.40 23.60 88.90 23.60Q89.40 23.60 89.40 24.10Q89.40 24.60 88.90 24.60M88.10 26.40Q87.60 26.40 87.60 25.90Q87.60 25.40 88.10 25.40Q88.60 25.40 88.60 25.90Q88.60 26.40 88.10 26.40M87.30 28.30Q86.80 28.30 86.80 27.80Q86.80 27.30 87.30 27.30Q87.80 27.30 87.80 27.80Q87.80 28.30 87.30 28.30M86.40 30.30Q85.90 30.30 85.90 29.80Q85.90 29.30 86.40 29.30Q86.90 29.30 86.90 29.80Q86.90 30.30 86.40 30.30M85.55 32.30Q85.05 32.30 85.05 31.80Q85.05 31.30 85.55 31.30Q86.05 31.30 86.05 31.80Q86.05 32.30 85.55 32.30M84.80 34.10Q84.30 34.10 84.30 33.60Q84.30 33.10 84.80 33.10Q85.30 33.10 85.30 33.60Q85.30 34.10 84.80 34.10M84 36Q83.50 36 83.50 35.50Q83.50 35 84 35Q84.50 35 84.50 35.50Q84.50 36 84 36M83.10 38Q82.60 38 82.60 37.50Q82.60 37 83.10 37Q83.60 37 83.60 37.50Q83.60 38 83.10 38M82.30 40.05Q81.80 40.05 81.80 39.55Q81.80 39.05 82.30 39.05Q82.80 39.05 82.80 39.55Q82.80 40.05 82.30 40.05M81.50 42Q81 42 81 41.50Q81 41 81.50 41Q82 41 82 41.50Q82 42 81.50 42M80.60 43.90Q80.10 43.90 80.10 43.40Q80.10 42.90 80.60 42.90Q81.10 42.90 81.10 43.40Q81.10 43.90 80.60 43.90M90.40 20.90Q89.90 20.90 89.90 20.40Q89.90 19.90 90.40 19.90Q90.90 19.90 90.90 20.40Q90.90 20.90 90.40 20.90Z"/></g></g></svg>